<?xml version="1.0" encoding="UTF-8"?>
<svg version="1.1" xmlns="http://www.w3.org/2000/svg" width="512" height="512">
<path d="M0 0 C0.99773437 0.88751953 0.99773437 0.88751953 2.015625 1.79296875 C2.99789062 2.39044922 2.99789062 2.39044922 4 3 C6.52549796 2.4169318 6.52549796 2.4169318 9 1 C9.84820312 0.58621094 10.69640625 0.17242187 11.5703125 -0.25390625 C12.41335938 -0.68574219 13.25640625 -1.11757813 14.125 -1.5625 C22.44061988 -5.8214117 31.95052039 -6.48732429 41.06640625 -4.24609375 C44.84269011 -2.77593744 48.06168838 -1.03240206 51.3125 1.375 C52.199375 1.91125 53.08625 2.4475 54 3 C57.55744048 1.8812708 60.81106081 0.13500708 64.125 -1.5625 C72.45878413 -5.83071467 81.84599512 -6.40410802 90.99609375 -4.31640625 C99.9227643 -0.96020094 107.14015512 4.75350363 112 13 C112.875 16 112.875 16 113 18 C114.4540625 17.2575 114.4540625 17.2575 115.9375 16.5 C124.10025133 13.458975 135.29185353 13.57771947 143.5 16.5625 C153.57530825 21.48020998 159.91491153 28.24509018 164.06225586 38.67016602 C165.126582 42.44947978 165.25339411 45.91741277 165.1953125 49.8046875 C165.19106766 50.8906572 165.19106766 50.8906572 165.18673706 51.99856567 C165.17562087 54.2908849 165.15053312 56.58280063 165.125 58.875 C165.1149591 60.43749432 165.10583519 61.99999482 165.09765625 63.5625 C165.07570973 67.37515338 165.04124013 71.18750848 165 75 C165.77959076 74.98889694 166.55918152 74.97779388 167.36239624 74.96635437 C174.74673008 74.86573618 182.13072669 74.78982595 189.51556969 74.74093914 C193.31129829 74.71495984 197.10645558 74.67977993 200.90185547 74.62280273 C204.5718196 74.56805992 208.24123789 74.53849196 211.91157913 74.52561378 C213.30452684 74.51644884 214.69744817 74.49855339 216.09016037 74.47134972 C225.00492166 74.304309 231.43630434 75.1338474 239 80 C239.9075 80.556875 240.815 81.11375 241.75 81.6875 C247.33211241 87.42467109 251.08510453 94.29466045 251.19287109 102.32250977 C251.20893402 103.41116837 251.22499695 104.49982697 251.24154663 105.62147522 C251.28615685 110.61523759 251.32708852 115.60886781 251.35009766 120.6027832 C251.36662097 123.23015218 251.39386241 125.85747688 251.43212891 128.48461914 C251.48714599 132.28295092 251.50881425 136.08022858 251.5234375 139.87890625 C251.54610687 141.04281387 251.56877625 142.2067215 251.59213257 143.40589905 C251.57232337 151.12599009 250.075394 156.44474024 246 163 C245.443125 163.9075 244.88625 164.815 244.3125 165.75 C238.19761857 171.69961436 231.28187494 175.13021979 222.78442383 175.11352539 C221.5033223 175.11344986 220.22222076 175.11337433 218.90229797 175.11329651 C217.50387534 175.10818987 216.1054531 175.10297387 214.70703125 175.09765625 C213.27642364 175.09579089 211.84581539 175.09436754 210.41520691 175.09336853 C206.65213249 175.08955267 202.88909675 175.07973032 199.1260376 175.06866455 C195.28520226 175.05843043 191.44436067 175.05386662 187.60351562 175.04882812 C180.0689928 175.03810722 172.53450182 175.02104196 165 175 C165.01030998 175.93584427 165.01030998 175.93584427 165.02082825 176.89059448 C165.04835994 179.75777402 165.0652643 182.6249256 165.08203125 185.4921875 C165.09302856 186.47340576 165.10402588 187.45462402 165.11535645 188.46557617 C165.18421204 204.19744029 160.00355383 217.30115054 153.97338867 231.67822266 C147.12946261 248.2571759 146.02432546 264.52979523 145.4375 282.25 C145.39431641 283.48363281 145.35113281 284.71726562 145.30664062 285.98828125 C145.20185595 288.99210867 145.0996846 291.99599975 145 295 C146.02480469 294.94199219 147.04960937 294.88398438 148.10546875 294.82421875 C149.46610011 294.77730043 150.82678096 294.73180248 152.1875 294.6875 C152.86103516 294.64560547 153.53457031 294.60371094 154.22851562 294.56054688 C157.98023764 294.46904146 159.73018135 294.78590667 162.69591331 297.13912964 C165.41681746 300.51754161 165.62755016 301.98219001 165.63491821 306.26220703 C165.64901733 307.52397766 165.66311646 308.78574829 165.67764282 310.08575439 C165.66792216 311.47644403 165.65768136 312.86713012 165.64697266 314.2578125 C165.65375082 315.72826215 165.66265508 317.19870331 165.67352295 318.66912842 C165.69629983 322.65685627 165.68748704 326.64393669 165.67162752 330.63167572 C165.65895999 334.8067142 165.67071099 338.9816976 165.67855835 343.15673828 C165.68765246 350.16774437 165.67567339 357.17848704 165.65185547 364.18945312 C165.62464446 372.29272383 165.63345881 380.39536552 165.6609875 388.49862099 C165.68368449 395.45845737 165.68687582 402.41810449 165.67379415 409.37796593 C165.66600281 413.53367802 165.6649491 417.68909454 165.68147659 421.8447876 C165.69593091 425.75206159 165.68588321 429.65852542 165.65700531 433.56571198 C165.65039947 434.99877833 165.65228377 436.43191299 165.66331863 437.86495209 C165.67700182 439.82254078 165.65679163 441.78027866 165.63491821 443.73779297 C165.63303308 444.83284149 165.63114796 445.92789001 165.6292057 447.05612183 C164.75403061 451.15082222 163.38968363 452.56784631 160 455 C156.96410459 455.49220353 154.49151879 455.67723054 151.45996094 455.63491821 C150.1725255 455.64661814 150.1725255 455.64661814 148.85908127 455.65855443 C145.98374224 455.6784946 143.10972379 455.6627021 140.234375 455.64697266 C138.17280301 455.65374787 136.11123707 455.66265046 134.04968262 455.67352295 C128.4504973 455.69633407 122.85177218 455.68747225 117.25257874 455.67162752 C111.39591217 455.65897804 105.53928528 455.67070599 99.68261719 455.67855835 C89.84693316 455.68765766 80.01143679 455.6756595 70.17578125 455.65185547 C58.80067786 455.6246438 47.42602255 455.63345776 36.05093002 455.6609875 C26.28858476 455.68366943 16.52637448 455.68688308 6.76401138 455.67379415 C0.93158879 455.66599466 -4.90062313 455.6649719 -10.73303223 455.68147659 C-16.21611022 455.69590861 -21.69860992 455.68592234 -27.18162537 455.65700531 C-29.19521626 455.65038778 -31.20885573 455.6523035 -33.22242737 455.66331863 C-35.96893126 455.67695925 -38.71357592 455.65987676 -41.45996094 455.63491821 C-42.25908527 455.64607182 -43.05820961 455.65722543 -43.88154984 455.66871703 C-47.77162092 455.60002437 -49.80511956 455.13982992 -52.99407005 452.85170555 C-55.35675199 449.49282794 -55.62790441 447.81202773 -55.63491821 443.73779297 C-55.64901733 442.47602234 -55.66311646 441.21425171 -55.67764282 439.91424561 C-55.66792216 438.52355597 -55.65768136 437.13286988 -55.64697266 435.7421875 C-55.65375082 434.27173785 -55.66265508 432.80129669 -55.67352295 431.33087158 C-55.69629983 427.34314373 -55.68748704 423.35606331 -55.67162752 419.36832428 C-55.65895999 415.1932858 -55.67071099 411.0183024 -55.67855835 406.84326172 C-55.68765246 399.83225563 -55.67567339 392.82151296 -55.65185547 385.81054688 C-55.62464446 377.70727617 -55.63345881 369.60463448 -55.6609875 361.50137901 C-55.68368449 354.54154263 -55.68687582 347.58189551 -55.67379415 340.62203407 C-55.66600281 336.46632198 -55.6649491 332.31090546 -55.68147659 328.1552124 C-55.69593091 324.24793841 -55.68588321 320.34147458 -55.65700531 316.43428802 C-55.65039947 315.00122167 -55.65228377 313.56808701 -55.66331863 312.13504791 C-55.67700182 310.17745922 -55.65679163 308.21972134 -55.63491821 306.26220703 C-55.63303308 305.16715851 -55.63114796 304.07210999 -55.6292057 302.94387817 C-54.78526664 298.99532244 -53.12391861 297.47873953 -50 295 C-47.1612599 294.63228755 -44.98179849 294.51369196 -42.1875 294.6875 C-41.49462891 294.71005859 -40.80175781 294.73261719 -40.08789062 294.75585938 C-38.39098427 294.81437339 -36.69520139 294.9040452 -35 295 C-35.80198485 267.10983572 -37.43427048 247.90802302 -58.2421875 227.66796875 C-59.81913105 226.11145033 -61.39595008 224.55480576 -62.97265625 222.99804688 C-65.42074644 220.59327922 -67.87131367 218.19110514 -70.32470703 215.79174805 C-83.0282596 203.34737349 -93.15796801 192.12088079 -101 176 C-101.76195679 176.07629639 -102.52391357 176.15259277 -103.30895996 176.23120117 C-147.09023556 180.35958876 -181.18476916 176.08320972 -220.375 155.25 C-221.2572525 154.78271484 -222.139505 154.31542969 -223.04849243 153.83398438 C-231.88706369 149.13388442 -240.648534 144.29706385 -249.27880859 139.22363281 C-249.89122658 138.86916077 -250.50364456 138.51468872 -251.13462067 138.1494751 C-255.52778741 135.52025262 -260.21591946 132.63167458 -261.734375 127.53515625 C-261.73953125 126.71917969 -261.7446875 125.90320313 -261.75 125.0625 C-261.78609375 124.24910156 -261.8221875 123.43570313 -261.859375 122.59765625 C-257.85807565 110.50281956 -232.82117326 100.0861094 -222.125 94.125 C-221.31188103 93.67012585 -220.49876205 93.21525169 -219.66100311 92.74659348 C-184.41494244 73.28111637 -149.83063095 71.61769915 -110.625 72.5625 C-109.93498303 72.57879865 -109.24496607 72.59509729 -108.5340395 72.61188984 C-90.67086947 73.04350062 -72.83089019 73.83810558 -55 75 C-55.00888245 74.35821808 -55.01776489 73.71643616 -55.0269165 73.0552063 C-55.11583029 66.33865317 -55.17591626 59.62226891 -55.21972656 52.90527344 C-55.23976603 50.40292564 -55.26700522 47.90062422 -55.30175781 45.3984375 C-55.3506124 41.78894563 -55.37304645 38.18007621 -55.390625 34.5703125 C-55.41127014 33.46261505 -55.43191528 32.3549176 -55.45318604 31.21365356 C-55.45610284 20.97672862 -52.5721827 12.95732951 -46.05859375 5.04296875 C-33.52962006 -7.39090837 -14.92601037 -8.43747401 0 0 Z M-31 20 C-34.41662217 24.59476774 -35.1293745 29.07205284 -35.11352539 34.69848633 C-35.11344986 35.59904251 -35.11337433 36.49959869 -35.11329651 37.42744446 C-35.10813522 38.3859581 -35.10297394 39.34447174 -35.09765625 40.33203125 C-35.0962413 41.32377853 -35.09482635 42.31552582 -35.09336853 43.33732605 C-35.08778418 46.49574843 -35.07523452 49.65409915 -35.0625 52.8125 C-35.05748298 54.95768127 -35.05292042 57.10286365 -35.04882812 59.24804688 C-35.03867203 64.49874753 -35.01909348 69.74929384 -35 75 C-25.1 75 -15.2 75 -5 75 C-4.95398753 68.71929747 -4.91419163 62.43918429 -4.89013672 56.15844727 C-4.88010437 54.02366143 -4.86647536 51.88888926 -4.84912109 49.75415039 C-4.8247511 46.67851381 -4.813489 43.60305957 -4.8046875 40.52734375 C-4.79436493 39.57915268 -4.78404236 38.63096161 -4.77340698 37.65403748 C-4.77229022 30.99760146 -4.90342739 25.41912224 -9.4375 20.1875 C-14.05092383 16.24921137 -16.59018413 15.5545412 -22.4921875 15.68359375 C-26.19221913 16.15042017 -28.25813697 17.5256358 -31 20 Z M19 20 C15.58337783 24.59476774 14.8706255 29.07205284 14.88647461 34.69848633 C14.88655014 35.59904251 14.88662567 36.49959869 14.88670349 37.42744446 C14.89186478 38.3859581 14.89702606 39.34447174 14.90234375 40.33203125 C14.9037587 41.32377853 14.90517365 42.31552582 14.90663147 43.33732605 C14.91221582 46.49574843 14.92476548 49.65409915 14.9375 52.8125 C14.94251702 54.95768127 14.94707958 57.10286365 14.95117188 59.24804688 C14.96132797 64.49874753 14.98090652 69.74929384 15 75 C24.9 75 34.8 75 45 75 C45.0691253 68.75568154 45.1287834 62.51270771 45.16479492 56.26831055 C45.17981784 54.14717086 45.20024211 52.0260619 45.22631836 49.9050293 C45.26298838 46.84416081 45.27979175 43.78370546 45.29296875 40.72265625 C45.30845261 39.78478775 45.32393646 38.84691925 45.33988953 37.88063049 C45.34140228 31.87046708 44.66534264 26.46015632 42 21 C37.29372389 16.40851111 33.93085276 15.64500819 27.54296875 15.71875 C23.80819582 16.13181244 21.76058172 17.50874332 19 20 Z M69 20 C65.05979491 25.2988965 64.87501812 30.4371073 64.85473633 36.88232422 C64.85137772 37.55456024 64.8480191 38.22679626 64.84455872 38.91940308 C64.83509696 41.1311836 64.83310803 43.34288803 64.83203125 45.5546875 C64.82881539 47.10018952 64.82545107 48.64569124 64.82194519 50.19119263 C64.8159659 53.42743637 64.81410406 56.66365346 64.81469727 59.89990234 C64.81479883 64.03451951 64.80114735 68.16896473 64.78392506 72.30354118 C64.772774 75.4949725 64.77077901 78.68636264 64.77130699 81.87781143 C64.77013153 83.40154742 64.76573425 84.92528463 64.75797462 86.44900131 C64.74811154 88.58575026 64.75107733 90.72213108 64.75708008 92.85888672 C64.75565506 94.07180389 64.75423004 95.28472107 64.75276184 96.53439331 C65.12970329 101.81808744 65.93695704 105.77341196 69.4375 109.8125 C74.05092383 113.75078863 76.59018413 114.4454588 82.4921875 114.31640625 C86.19221913 113.84957983 88.25813697 112.4743642 91 110 C94.94020509 104.7011035 95.12498188 99.5628927 95.14526367 93.11767578 C95.14862228 92.44543976 95.1519809 91.77320374 95.15544128 91.08059692 C95.16490304 88.8688164 95.16689197 86.65711197 95.16796875 84.4453125 C95.17118461 82.89981048 95.17454893 81.35430876 95.17805481 79.80880737 C95.1840341 76.57256363 95.18589594 73.33634654 95.18530273 70.10009766 C95.18520117 65.96548049 95.19885265 61.83103527 95.21607494 57.69645882 C95.227226 54.5050275 95.22922099 51.31363736 95.22869301 48.12218857 C95.22986847 46.59845258 95.23426575 45.07471537 95.24202538 43.55099869 C95.25188846 41.41424974 95.24892267 39.27786892 95.24291992 37.14111328 C95.24434494 35.92819611 95.24576996 34.71527893 95.24723816 33.46560669 C94.87029671 28.18191256 94.06304296 24.22658804 90.5625 20.1875 C85.94907617 16.24921137 83.40981587 15.5545412 77.5078125 15.68359375 C73.80778087 16.15042017 71.74186303 17.5256358 69 20 Z M119 40 C115.49792995 44.70968041 114.88036501 49.29086875 114.85473633 55.04638672 C114.84835648 56.02445282 114.84197662 57.00251892 114.83540344 58.01022339 C114.83429062 59.05614655 114.8331778 60.1020697 114.83203125 61.1796875 C114.82870285 62.26581329 114.82537445 63.35193909 114.82194519 64.47097778 C114.81688896 66.76564105 114.81453646 69.06031164 114.81469727 71.35498047 C114.81251232 74.85526717 114.79434672 78.35523783 114.77539062 81.85546875 C114.77245609 84.08854059 114.7704717 86.32161393 114.76953125 88.5546875 C114.76234573 89.59656219 114.75516022 90.63843689 114.74775696 91.71188354 C114.76098112 101.49561649 114.76098112 101.49561649 119.4375 109.8125 C124.05092383 113.75078863 126.59018413 114.4454588 132.4921875 114.31640625 C136.19221913 113.84957983 138.25813697 112.4743642 141 110 C144.49244138 105.30326849 145.11502569 100.72507651 145.16113281 94.98535156 C145.17074036 94.01374084 145.1803479 93.04213013 145.19024658 92.04107666 C145.1966214 90.48160309 145.1966214 90.48160309 145.203125 88.890625 C145.21167511 87.26855133 145.21167511 87.26855133 145.22039795 85.6137085 C145.22983222 83.32744317 145.23637567 81.04116435 145.24023438 78.75488281 C145.24992631 75.27644824 145.28095977 71.79860819 145.3125 68.3203125 C145.31903208 66.09375349 145.32428175 63.86719027 145.328125 61.640625 C145.3404718 60.60907288 145.3528186 59.57752075 145.36553955 58.51470947 C145.34657179 52.29417385 144.80114845 46.64527981 142 41 C137.29372389 36.40851111 133.93085276 35.64500819 127.54296875 35.71875 C123.80819582 36.13181244 121.76058172 37.50874332 119 40 Z M-151 95 C-149.35 100.28 -147.7 105.56 -146 111 C-143.33792421 126.97245475 -145.93677112 139.81031336 -151 155 C-135.82 155 -120.64 155 -105 155 C-104.67 147.74 -104.34 140.48 -104 133 C-100.77399005 120.45440574 -96.7613321 109.94122836 -88.55078125 99.91015625 C-86.84870563 97.87466518 -86.84870563 97.87466518 -85 95 C-106.78 95 -128.56 95 -151 95 Z M-73.078125 112.52734375 C-83.02929772 125.33037695 -86.10624442 140.98351331 -84.5625 156.875 C-80.97822343 175.99441503 -68.65270832 187.28617464 -55.0625 200.25 C-51.479909 203.70234405 -47.90892149 207.166289 -44.34765625 210.640625 C-43.50378357 211.46381226 -42.65991089 212.28699951 -41.79046631 213.13513184 C-33.92714007 220.89526997 -27.03786431 229.02761872 -22.125 239 C-21.59132812 240.051875 -21.05765625 241.10375 -20.5078125 242.1875 C-13.40847055 260.13816772 -15.56065052 274.25593083 -15 295 C31.2 295 77.4 295 125 295 C125.33 281.14 125.66 267.28 126 253 C128.23086127 239.68679566 132.13057745 228.28503858 137.43334961 215.95874023 C143.33567467 202.12041999 144.18233616 190.5356129 145 175 C110.35 175 75.7 175 40 175 C41.44824354 182.27617686 41.44824354 182.27617686 43.11328125 189.50390625 C44.49920602 196.44438946 44.26172195 203.49619738 44.20581055 210.54321289 C44.18735356 212.95664867 44.18530277 215.36970353 44.18554688 217.78320312 C44.18063755 219.32291999 44.17481181 220.86263427 44.16796875 222.40234375 C44.16685593 223.12107162 44.1657431 223.8397995 44.16459656 224.58030701 C44.13522186 227.65699935 43.98066526 230.05800423 43 233 C40.05173237 233.98275588 38.07347496 234.13414725 35 234.125 C34.13375 234.12757813 33.2675 234.13015625 32.375 234.1328125 C30 234 30 234 27 233 C24.65395323 225.53815893 24.76536761 218.20022108 24.6875 210.4375 C24.19511032 189.66540078 18.49121892 174.04605696 3.44677734 159.32617188 C-5.15235218 151.44387833 -16.16090433 147.76588619 -27.125 144.4375 C-29.58401582 143.61181212 -31.00175481 142.99861742 -33.0625 141.375 C-34.519182 137.68473894 -34.86849888 133.88430996 -34 130 C-32.44555664 127.89501953 -32.44555664 127.89501953 -30 126 C-27.3250753 125.60439667 -25.04771299 125.4418717 -22.375 125.4609375 C-21.6322583 125.44914459 -20.8895166 125.43735168 -20.12426758 125.42520142 C-17.74930028 125.38997734 -15.37520663 125.38078966 -13 125.375 C5.29287322 125.24636346 20.65048064 124.80518849 34.7265625 111.6171875 C38.43888172 107.34355541 43 100.88538561 43 95 C33.05460257 94.95342328 23.10923159 94.9180031 13.16374683 94.89637566 C8.54442777 94.88598957 3.92518397 94.87192624 -0.6940918 94.84912109 C-5.16153504 94.82720645 -9.62890641 94.81539259 -14.09639931 94.81024551 C-15.79102012 94.80658288 -17.48563751 94.79943191 -19.18022728 94.78853989 C-39.80333501 94.66139513 -58.0758951 96.95502912 -73.078125 112.52734375 Z M165 95 C164.9175 96.93875 164.835 98.8775 164.75 100.875 C163.98956202 110.46901895 160.95075345 119.1084019 154 126 C144.14321638 133.22402708 134.10047048 135.5293407 122 134 C116.89254253 132.54711275 111.99142979 130.77144626 107.984375 127.20703125 C107.32953125 126.80871094 106.6746875 126.41039062 106 126 C103.47450204 126.5830682 103.47450204 126.5830682 101 128 C100.15179688 128.41378906 99.30359375 128.82757813 98.4296875 129.25390625 C97.58664062 129.68574219 96.74359375 130.11757812 95.875 130.5625 C87.452769 134.87601344 77.41975848 135.54533389 68.16015625 133.31640625 C63.50166337 131.34330118 59.6025465 128.39388639 55.7265625 125.171875 C53.9340762 123.71920351 53.9340762 123.71920351 51 124 C49.18200065 125.56676536 49.18200065 125.56676536 47.375 127.625 C38.8444946 136.37107773 29.33392843 140.0783217 18 144 C18.39832031 144.45890625 18.79664063 144.9178125 19.20703125 145.390625 C19.73683594 146.00421875 20.26664062 146.6178125 20.8125 147.25 C21.33457031 147.85328125 21.85664063 148.4565625 22.39453125 149.078125 C24 151 24 151 25.18866444 153.09005356 C26.90813721 155.28667256 26.90813721 155.28667256 29.93039227 155.49219131 C31.74033279 155.48666056 31.74033279 155.48666056 33.58683777 155.48101807 C34.59523656 155.48614462 34.59523656 155.48614462 35.62400705 155.49137473 C37.88152345 155.4979748 40.13785644 155.47594454 42.39526367 155.45410156 C44.01144889 155.45297353 45.62763616 155.45360607 47.24382019 155.45587158 C51.63624323 155.45702141 56.02823123 155.43346885 60.42055297 155.40557575 C65.00896878 155.38060674 69.59739405 155.37822366 74.18586731 155.37347412 C82.87694219 155.36103108 91.56781632 155.32819155 100.25880271 155.28807616 C110.152247 155.24339972 120.04570077 155.22138181 129.93922079 155.20129442 C150.29295087 155.15946 170.64640568 155.08609111 191 155 C191 135.2 191 115.4 191 95 C182.42 95 173.84 95 165 95 Z M211 95 C211 114.8 211 134.6 211 155 C220.33529163 155.39674595 220.33529163 155.39674595 228 152 C230.99309052 146.52772198 231.44425582 141.97570984 231.3984375 135.8125 C231.40130768 134.95116455 231.40417786 134.0898291 231.40713501 133.20239258 C231.40916661 131.39045551 231.40370036 129.57849605 231.39111328 127.76660156 C231.37504636 125.00796023 231.39099251 122.25078378 231.41015625 119.4921875 C231.40817366 117.72395513 231.40432965 115.95572366 231.3984375 114.1875 C231.40451019 113.37063721 231.41058289 112.55377441 231.4168396 111.7121582 C231.35251051 106.42169042 230.5537702 102.66906711 228 98 C222.00383537 94.20650809 218.66674789 95 211 95 Z M-180.93041992 101.29492188 C-181.93123093 101.79544067 -182.93204193 102.29595947 -183.96318054 102.81164551 C-185.5804882 103.63191223 -185.5804882 103.63191223 -187.23046875 104.46875 C-188.88880486 105.30110168 -188.88880486 105.30110168 -190.5806427 106.15026855 C-193.51731 107.62558337 -196.45130088 109.10605403 -199.38409424 110.58905029 C-202.3782308 112.10147078 -205.37582465 113.60698495 -208.37304688 115.11328125 C-214.2518708 118.06925236 -220.12721808 121.03204469 -226 124 C-226 124.66 -226 125.32 -226 126 C-218.96092109 129.5954772 -211.91258013 133.17226261 -204.85742188 136.73608398 C-202.45672252 137.94984766 -200.05916618 139.16952004 -197.6640625 140.39428711 C-194.22434097 142.15045288 -190.77716427 143.89112688 -187.328125 145.62890625 C-186.25508118 146.18091202 -185.18203735 146.73291779 -184.07647705 147.301651 C-183.07574158 147.80224533 -182.0750061 148.30283966 -181.04394531 148.81860352 C-180.16458313 149.26494644 -179.28522095 149.71128937 -178.37921143 150.17115784 C-175.71325906 151.09989149 -174.5726564 151.10498652 -172 150 C-165.2640772 140.45434145 -164.01103782 129.34894403 -165 118 C-166.44286953 111.17983834 -168.30392947 104.30201511 -173 99 C-176.41852834 99 -177.8991901 99.76785395 -180.93041992 101.29492188 Z M-35 315 C-35 354.6 -35 394.2 -35 435 C24.4 435 83.8 435 145 435 C145 395.4 145 355.8 145 315 C85.6 315 26.2 315 -35 315 Z " fill="#000000" transform="translate(261,31)"/>
<path d="M0 0 C1.30578003 -0.0131424 1.30578003 -0.0131424 2.63793945 -0.02655029 C5.50913665 -0.04851729 8.37878776 -0.03400134 11.25 -0.01708984 C13.24870092 -0.02045876 15.24739984 -0.025312 17.24609375 -0.03158569 C21.43249032 -0.03895336 25.61835304 -0.02825475 29.8046875 -0.00488281 C35.16848239 0.02360472 40.53102639 0.00720021 45.89477539 -0.02274513 C50.02125458 -0.04082084 54.14743763 -0.03505878 58.27392578 -0.02210617 C60.25146635 -0.01877292 62.22903389 -0.02285637 64.20654297 -0.03450394 C66.97175203 -0.04721708 69.73494125 -0.02782972 72.5 0 C73.31573486 -0.01012115 74.13146973 -0.02024231 74.97192383 -0.03067017 C79.22925888 0.04863091 80.79842415 0.28873379 84.25537109 3.03115845 C86.42210281 5.87267327 86.930059 7.12319656 86.875 10.64697266 C86.89433594 11.88447266 86.89433594 11.88447266 86.9140625 13.14697266 C85.9272079 16.86218996 84.24920784 18.26767623 81.25 20.64697266 C78.33052644 21.36935598 75.496091 21.33111903 72.5 21.29394531 C71.19421997 21.30708771 71.19421997 21.30708771 69.86206055 21.32049561 C66.99086335 21.3424626 64.12121224 21.32794665 61.25 21.31103516 C59.25129908 21.31440407 57.25260016 21.31925732 55.25390625 21.32553101 C51.06750968 21.33289868 46.88164696 21.32220006 42.6953125 21.29882812 C37.33151761 21.2703406 31.96897361 21.28674511 26.60522461 21.31669044 C22.47874542 21.33476615 18.35256237 21.32900409 14.22607422 21.31605148 C12.24853365 21.31271824 10.27096611 21.31680168 8.29345703 21.32844925 C5.52824797 21.34116239 2.76505875 21.32177503 0 21.29394531 C-1.22360229 21.30912704 -1.22360229 21.30912704 -2.47192383 21.32461548 C-6.72925888 21.2453144 -8.29842415 21.00521152 -11.75537109 18.26278687 C-13.92210281 15.42127204 -14.430059 14.17074876 -14.375 10.64697266 C-14.38789063 9.82197266 -14.40078125 8.99697266 -14.4140625 8.14697266 C-12.39354273 0.54031 -6.72155558 -0.08339708 0 0 Z " fill="#000000" transform="translate(299.75,365.35302734375)"/>
<path d="M0 0 C3.125 1.875 3.125 1.875 5 5 C5.98876625 10.02622846 5.7769173 13.70513784 3.125 18.125 C-1.29486216 20.7769173 -4.97377154 20.98876625 -10 20 C-13.125 18.125 -13.125 18.125 -15 15 C-15.98876625 9.97377154 -15.7769173 6.29486216 -13.125 1.875 C-8.70513784 -0.7769173 -5.02622846 -0.98876625 0 0 Z " fill="#000000" transform="translate(261,366)"/>
</svg>
